<svg xmlns="http://www.w3.org/2000/svg" version="1.0" width="1024.000000pt" height="1024.000000pt"
  viewBox="0 0 1024.000000 1024.000000" preserveAspectRatio="xMidYMid meet">

  <g transform="translate(0.000000,1024.000000) scale(0.100000,-0.100000)" fill="#000000"
    stroke="none">
    <path
      d="M0 5120 l0 -5120 5120 0 5120 0 0 5120 0 5120 -5120 0 -5120 0 0 -5120z m3581 2324 c101 -119 191 -224 199 -232 8 -9 26 -30 40 -47 14 -18 95 -113 180 -212 85 -99 238 -278 340 -398 102 -121 205 -242 230 -270 25 -29 74 -87 110 -130 36 -43 70 -83 75 -89 6 -6 48 -56 95 -111 46 -55 91 -107 99 -116 9 -9 50 -57 91 -107 41 -50 78 -91 81 -92 3 0 48 50 100 112 219 260 280 332 387 459 63 74 158 186 212 249 54 63 153 180 220 260 67 80 181 215 254 300 73 85 170 200 216 255 47 55 95 111 107 125 13 14 67 78 121 142 l97 117 258 0 257 1 0 -2550 0 -2550 -255 0 -255 0 0 740 0 740 -1720 0 -1720 0 0 -740 0 -740 -255 0 -255 0 0 2550 0 2550 254 0 253 0 184 -216z" />
    <path
      d="M3400 5728 l0 -1178 1720 0 1720 0 0 1175 c0 646 -3 1175 -7 1175 -5 0 -19 -16 -33 -34 -14 -19 -99 -119 -189 -222 -90 -104 -187 -216 -215 -249 -28 -33 -60 -71 -73 -85 -33 -37 -350 -407 -408 -475 -27 -33 -77 -91 -111 -130 -221 -257 -325 -377 -363 -423 l-45 -52 -276 0 -276 0 -22 25 c-12 14 -48 56 -79 93 -79 94 -185 216 -558 647 -176 204 -361 417 -410 475 -96 113 -115 135 -191 220 -27 31 -69 80 -94 110 -25 30 -55 65 -67 79 l-22 26 -1 -1177z" />
  </g>
</svg>
